# Blender v2.82 (sub 7) OBJ File: 'Room.blend'
# www.blender.org
mtllib Room.mtl
o Room_Cube
v -2.758874 -3.810311 -0.000000
v -2.758874 -4.010311 -0.000000
v -2.958874 -3.810311 -0.000000
v -2.958874 -4.010311 -0.000000
v -2.758874 -4.010311 1.600000
v -2.958874 -4.010311 1.600000
v -2.758874 -3.810311 1.600000
v -2.958874 -3.810311 1.600000
v 4.041126 -3.810311 -0.000000
v 4.041126 -4.010311 -0.000000
v 4.041126 -3.810311 1.600000
v 4.041126 -4.010311 1.600000
v 3.841126 -4.010311 -0.000000
v 3.841127 -4.010311 1.600000
v 3.841127 -3.810311 1.600000
v 3.841126 -3.810311 -0.000000
v 3.841127 2.989688 1.600000
v 4.041126 2.989688 1.600000
v 4.041126 2.989688 0.000000
v 3.841126 2.989688 0.000000
v 4.041126 2.789689 0.000000
v 3.841127 2.789689 1.600000
v 4.041126 2.789689 1.600000
v 3.841126 2.789689 0.000000
v 1.841127 2.989688 0.000000
v 1.641126 2.989688 0.000000
v 1.841127 2.789689 0.000000
v 1.641126 2.789689 0.000000
v 1.041126 2.989688 0.000000
v 0.841126 2.989688 0.000000
v 0.841126 3.189688 0.000000
v 1.841127 3.189688 0.000000
v 1.641126 3.189688 0.000000
v 1.041126 3.189688 0.000000
v -2.758874 3.589688 0.000000
v -2.958874 3.589688 0.000000
v 0.841126 3.589688 0.000000
v 1.041126 3.589688 0.000000
v 1.041126 3.389688 0.000000
v 0.841126 3.389688 0.000000
v -2.758874 3.389688 0.000000
v -2.958874 3.389688 0.000000
v 1.841127 2.989688 1.600000
v 1.641126 2.989688 1.600000
v 1.841127 2.789689 1.600000
v 1.641126 2.789689 1.600000
v 1.041126 2.989688 1.600000
v 0.841126 2.989688 1.600000
v 1.041126 3.389688 1.600000
v 1.041126 3.189688 1.600000
v 1.841127 3.189688 1.600000
v 1.641126 3.189688 1.600000
v 0.841126 3.189688 1.600000
v -2.958874 3.589688 1.600000
v -2.758874 3.589688 1.600000
v 0.841126 3.589688 1.600000
v 1.041126 3.589688 1.600000
v 0.841126 3.389688 1.600000
v -2.758874 3.389688 1.600000
v -2.958874 3.389688 1.600000
v -1.958875 -2.810311 -0.000000
v -1.758874 -2.810311 -0.000000
v -1.958875 -1.410311 -0.000000
v -1.758874 -1.410311 -0.000000
v -2.758874 2.389689 0.000000
v -2.758874 2.189688 0.000000
v -1.758874 2.389689 0.000000
v -1.758874 2.189688 0.000000
v -2.958874 2.189688 0.000000
v -2.958874 2.389689 0.000000
v 0.841126 2.189688 0.000000
v -1.558874 2.389689 0.000000
v -1.558874 2.189688 0.000000
v -2.758874 2.189688 1.600000
v -2.758874 2.389689 1.600000
v -2.958874 2.389689 1.600000
v -2.958874 2.189688 1.600000
v -0.958875 -1.610312 -0.000000
v -0.758875 -1.610312 -0.000000
v 0.241125 -1.610312 -0.000000
v 0.441127 -1.610312 -0.000000
v -0.958875 2.189688 0.000000
v -0.758874 2.189688 0.000000
v -0.958875 -2.610311 -0.000000
v -0.758875 -2.610311 -0.000000
v 0.241125 -2.610311 -0.000000
v 0.441127 -2.610311 -0.000000
v -0.958875 -2.810311 -0.000000
v -0.758875 -2.810311 -0.000000
v 0.241125 -2.810311 -0.000000
v 0.441127 -2.810311 -0.000000
v 0.241125 -3.010311 -0.000000
v 0.441127 -3.010311 -0.000000
v -0.958875 -1.410311 -0.000000
v -0.758875 -1.410311 -0.000000
v 0.241125 -1.410311 -0.000000
v 0.441127 -1.410311 -0.000000
v 1.241126 -2.010311 -0.000000
v 1.441126 -2.010311 -0.000000
v 1.441126 -2.810311 -0.000000
v 1.441126 -3.010311 -0.000000
v 2.441125 -2.010311 -0.000000
v 2.241124 -2.010311 -0.000000
v 1.441126 -3.010311 1.600000
v 1.441126 -2.810311 1.600000
v 0.441127 -2.810311 1.600000
v 0.441127 -3.010311 1.600000
v -1.958875 -2.810311 1.600000
v -1.758874 -2.810311 1.600000
v -1.958875 -1.410311 1.600000
v -1.758874 -1.410311 1.600000
v -0.958875 -1.610312 1.600000
v -0.758875 -1.610312 1.600000
v 0.241125 -1.610312 1.600000
v 0.441127 -1.610312 1.600000
v -0.958875 -2.610311 1.600000
v -0.758875 -2.610311 1.600000
v 0.241125 -2.610311 1.600000
v 0.441127 -2.610311 1.600000
v -0.958875 -2.810311 1.600000
v -0.758875 -2.810311 1.600000
v 0.241125 -2.810311 1.600000
v 0.241125 -3.010311 1.600000
v -0.958875 -1.410311 1.600000
v -0.758875 -1.410311 1.600000
v 0.241125 -1.410311 1.600000
v 0.441127 -1.410311 1.600000
v 2.441126 -4.010311 -0.000000
v 2.241124 -4.010311 -0.000000
v 2.441126 -3.810311 -0.000000
v 2.241124 -3.810311 -0.000000
v 2.241124 -4.010311 1.600000
v 2.441126 -4.010311 1.600000
v 2.241124 -3.810311 1.600000
v 2.441126 -3.810311 1.600000
v 2.241124 -2.010311 1.600000
v 2.441125 -2.010311 1.600000
v 1.641126 0.389689 0.000000
v 1.641126 0.589689 0.000000
v 3.841127 0.389689 1.600000
v 3.841127 0.589689 1.600000
v 4.041126 0.589689 0.000000
v 4.041126 0.389689 0.000000
v 1.841127 0.589689 0.000000
v 1.841127 0.389689 0.000000
v 3.841126 0.589689 0.000000
v 3.841126 0.389689 0.000000
v 4.041126 0.389689 1.600000
v 4.041126 0.589689 1.600000
v 1.641126 1.189689 0.000000
v 1.841127 1.189689 0.000000
v -0.958875 1.189689 0.000000
v -0.758874 1.189689 0.000000
v 1.641126 1.989688 0.000000
v 1.841127 1.989688 0.000000
v 0.841126 1.989688 0.000000
v -0.958875 1.989688 0.000000
v -0.758874 1.989688 0.000000
v 1.641126 0.589689 1.600000
v 1.641126 0.389689 1.600000
v 1.641126 1.189689 1.600000
v 1.841127 1.189689 1.600000
v 1.841127 0.589689 1.600000
v 1.841127 0.389689 1.600000
v 1.641126 1.989688 1.600000
v 1.841127 1.989688 1.600000
v -1.758874 -0.010311 -0.000000
v -1.558874 -0.010311 -0.000000
v -0.958875 -0.010311 -0.000000
v -0.758874 -0.010311 -0.000000
v -1.758874 -0.210311 -0.000000
v -1.558874 -0.210311 -0.000000
v -0.958875 -0.210311 -0.000000
v -0.758874 -0.210311 -0.000000
v 0.441127 -0.210311 -0.000000
v 1.441126 -0.210311 -0.000000
v 1.241126 -0.210311 -0.000000
v -0.358875 2.189688 0.000000
v -0.358875 2.389689 0.000000
v -0.358875 1.989688 0.000000
v -0.358875 -0.210311 -0.000000
v -1.758874 2.389689 1.600000
v -1.758874 2.189688 1.600000
v -1.558874 2.389689 1.600000
v -1.558874 2.189688 1.600000
v -1.758874 -0.010311 1.600000
v -1.558874 -0.010311 1.600000
v -1.758874 -0.210311 1.600000
v -1.558874 -0.210311 1.600000
v -0.958875 -0.410311 -0.000000
v -0.758875 -0.410311 -0.000000
v 0.441127 -0.410311 -0.000000
v 1.441126 -0.410311 -0.000000
v 1.241126 -0.410311 -0.000000
v -0.358875 -0.410311 -0.000000
v -0.958875 -0.010311 1.600000
v -0.758874 -0.010311 1.600000
v -0.958875 -0.210311 1.600000
v -0.758874 -0.210311 1.600000
v -0.358875 -0.210311 1.600000
v -0.958875 -0.410311 1.600000
v -0.758875 -0.410311 1.600000
v -0.358875 -0.410311 1.600000
v 2.841128 0.389689 0.000000
v 2.841128 0.589689 0.000000
v 2.841128 0.389689 1.600000
v 2.841128 0.589689 1.600000
v 3.041124 0.389689 0.000000
v 3.041124 0.589689 0.000000
v 3.041124 0.389689 1.600000
v 3.041124 0.589689 1.600000
v 1.241126 -2.010311 1.600000
v 1.441126 -2.010311 1.600000
v 0.441127 -0.210311 1.600000
v 1.241126 -0.210311 1.600000
v 1.441126 -0.210311 1.600000
v 0.441127 -0.410311 1.600000
v 1.441126 -0.410311 1.600000
v 1.241126 -0.410311 1.600000
v 1.441126 -1.210310 -0.000000
v 1.241126 -1.210310 -0.000000
v 2.841128 -1.210310 -0.000000
v 3.041124 -1.210310 -0.000000
v 1.441126 -1.210311 1.600000
v 1.241126 -1.210311 1.600000
v 1.441126 -1.010310 -0.000000
v 1.241126 -1.010310 -0.000000
v 2.841128 -1.010310 -0.000000
v 3.041124 -1.010310 -0.000000
v 1.441126 -1.010310 1.600000
v 1.241126 -1.010310 1.600000
v 2.841128 -1.010310 1.600000
v 2.841128 -1.210311 1.600000
v 3.041124 -1.010310 1.600000
v 3.041124 -1.210311 1.600000
v -0.358875 2.589689 0.000000
v -0.158875 2.189688 0.000000
v -0.158875 2.389689 0.000000
v -0.158875 1.989688 0.000000
v -0.158875 2.589689 0.000000
v 0.841126 2.189688 1.600000
v -0.958875 2.189688 1.600000
v -0.758874 2.189688 1.600000
v -0.158875 2.189688 1.600000
v -0.958875 1.989688 1.600000
v -0.958875 1.189689 1.600000
v -0.758874 1.989688 1.600000
v -0.758874 1.189689 1.600000
v 0.841126 1.989688 1.600000
v -0.358875 1.989688 1.600000
v -0.358875 2.189688 1.600000
v -0.158875 1.989688 1.600000
v -0.358875 2.389689 1.600000
v -0.358875 2.589689 1.600000
v -0.158875 2.389689 1.600000
v -0.158875 2.589689 1.600000
vt 0.625000 0.500000
vt 0.875000 0.500000
vt 0.875000 0.750000
vt 0.625000 0.750000
vt 0.625000 1.000000
vt 0.625000 0.750000
vt 0.625000 1.000000
vt 0.625000 0.250000
vt 0.625000 0.000000
vt 0.625000 0.000000
vt 0.625000 0.250000
vt 0.625000 0.750000
vt 0.625000 0.500000
vt 0.625000 0.500000
vt 0.625000 0.750000
vt 0.625000 0.750000
vt 0.625000 0.750000
vt 0.625000 0.500000
vt 0.625000 0.500000
vt 0.625000 0.500000
vt 0.625000 0.500000
vt 0.625000 0.500000
vt 0.625000 0.500000
vt 0.625000 0.500000
vt 0.625000 0.500000
vt 0.625000 0.500000
vt 0.625000 0.500000
vt 0.625000 0.250000
vt 0.875000 0.500000
vt 0.625000 0.500000
vt 0.625000 0.500000
vt 0.625000 0.500000
vt 0.625000 0.500000
vt 0.625000 0.500000
vt 0.625000 0.500000
vt 0.625000 0.500000
vt 0.625000 0.500000
vt 0.625000 0.500000
vt 0.625000 0.500000
vt 0.625000 0.500000
vt 0.625000 0.500000
vt 0.625000 0.500000
vt 0.625000 0.500000
vt 0.625000 0.500000
vt 0.625000 0.500000
vt 0.625000 0.500000
vt 0.625000 0.250000
vt 0.625000 0.250000
vt 0.625000 0.500000
vt 0.625000 0.500000
vt 0.625000 0.500000
vt 0.625000 0.500000
vt 0.625000 0.500000
vt 0.625000 0.500000
vt 0.625000 0.500000
vt 0.625000 0.500000
vt 0.625000 0.500000
vt 0.625000 0.500000
vt 0.625000 0.500000
vt 0.625000 0.500000
vt 0.625000 0.500000
vt 0.625000 0.250000
vt 0.625000 0.500000
vt 0.625000 0.500000
vt 0.625000 0.500000
vt 0.625000 0.500000
vt 0.625000 0.500000
vt 0.625000 0.500000
vt 0.625000 0.500000
vt 0.625000 0.500000
vt 0.625000 0.500000
vt 0.625000 0.500000
vt 0.625000 0.500000
vt 0.625000 0.500000
vt 0.625000 0.500000
vt 0.625000 0.500000
vt 0.625000 0.500000
vt 0.625000 0.500000
vt 0.625000 0.500000
vt 0.625000 0.500000
vt 0.625000 0.500000
vt 0.625000 0.500000
vt 0.625000 0.500000
vt 0.625000 0.500000
vt 0.625000 0.500000
vt 0.625000 0.500000
vt 0.625000 0.500000
vt 0.625000 0.500000
vt 0.625000 0.500000
vt 0.000000 0.000000
vt 0.625000 0.500000
vt 0.625000 0.500000
vt 0.625000 0.500000
vt 0.625000 0.500000
vt 0.625000 0.500000
vt 0.000000 0.000000
vt 0.625000 0.500000
vt 0.625000 0.500000
vt 0.625000 0.500000
vt 0.625000 0.500000
vt 0.625000 0.500000
vt 0.625000 0.500000
vt 0.625000 0.500000
vt 0.625000 0.500000
vt 0.625000 0.500000
vt 0.625000 0.500000
vt 0.625000 0.500000
vt 0.625000 0.500000
vt 0.625000 0.250000
vt 0.625000 0.250000
vt 0.625000 0.250000
vt 0.625000 0.250000
vt 0.875000 0.500000
vt 0.625000 0.500000
vt 0.625000 0.500000
vt 0.625000 0.500000
vt 0.625000 0.500000
vt 0.625000 0.500000
vt 0.625000 0.500000
vt 0.625000 0.500000
vt 0.625000 0.500000
vt 0.000000 0.000000
vt 0.000000 0.000000
vt 0.625000 0.750000
vt 0.625000 0.750000
vt 0.625000 0.750000
vt 0.625000 0.750000
vt 0.625000 0.500000
vt 0.625000 0.500000
vt 0.625000 0.500000
vt 0.625000 0.500000
vt 0.625000 0.500000
vt 0.625000 0.500000
vt 0.625000 0.500000
vt 0.625000 0.500000
vt 0.625000 0.500000
vt 0.625000 0.500000
vt 0.625000 0.500000
vt 0.625000 0.500000
vt 0.625000 0.500000
vt 0.625000 0.500000
vt 0.625000 0.500000
vt 0.625000 0.500000
vt 0.625000 0.500000
vt 0.625000 0.500000
vt 0.625000 0.500000
vt 0.625000 0.500000
vt 0.625000 0.500000
vt 0.625000 0.500000
vt 0.625000 0.500000
vt 0.625000 0.500000
vt 0.625000 0.500000
vt 0.625000 0.500000
vt 0.625000 0.500000
vt 0.625000 0.500000
vt 0.625000 0.500000
vt 0.625000 0.500000
vt 0.625000 0.500000
vt 0.625000 0.500000
vt 0.625000 0.500000
vt 0.625000 0.500000
vt 0.625000 0.500000
vt 0.625000 0.500000
vt 0.625000 0.500000
vt 0.625000 0.500000
vt 0.625000 0.500000
vt 0.625000 0.500000
vt 0.625000 0.500000
vt 0.625000 0.500000
vt 0.625000 0.500000
vt 0.625000 0.500000
vt 0.625000 0.500000
vt 0.625000 0.500000
vt 0.625000 0.500000
vt 0.000000 0.000000
vt 0.625000 0.500000
vt 0.000000 0.000000
vt 0.000000 0.000000
vt 0.625000 0.500000
vt 0.625000 0.500000
vt 0.625000 0.500000
vt 0.000000 0.000000
vt 0.625000 0.500000
vt 0.625000 0.500000
vt 0.625000 0.500000
vt 0.625000 0.500000
vt 0.625000 0.500000
vt 0.000000 0.000000
vt 0.625000 0.500000
vt 0.625000 0.500000
vt 0.625000 0.500000
vt 0.625000 0.500000
vt 0.625000 0.500000
vt 0.625000 0.500000
vt 0.625000 0.500000
vt 0.000000 0.000000
vt 0.625000 0.500000
vt 0.000000 0.000000
vt 0.625000 0.500000
vt 0.625000 0.500000
vt 0.000000 0.000000
vt 0.625000 0.500000
vt 0.625000 0.500000
vt 0.625000 0.500000
vt 0.625000 0.500000
vt 0.625000 0.500000
vt 0.625000 0.500000
vt 0.625000 0.500000
vt 0.625000 0.500000
vt 0.625000 0.500000
vt 0.625000 0.500000
vt 0.625000 0.500000
vt 0.625000 0.500000
vt 0.000000 0.000000
vt 0.625000 0.500000
vt 0.625000 0.500000
vt 0.625000 0.500000
vt 0.625000 0.500000
vt 0.625000 0.500000
vt 0.625000 0.500000
vt 0.625000 0.500000
vt 0.625000 0.500000
vt 0.625000 0.500000
vt 0.625000 0.500000
vt 0.625000 0.500000
vt 0.625000 0.500000
vt 0.000000 0.000000
vt 0.000000 0.000000
vt 0.625000 0.500000
vt 0.000000 0.000000
vt 0.625000 0.500000
vt 0.625000 0.500000
vt 0.625000 0.500000
vt 0.625000 0.500000
vt 0.625000 0.500000
vt 0.625000 0.500000
vt 0.625000 0.500000
vt 0.625000 0.500000
vt 0.625000 0.500000
vt 0.625000 0.500000
vt 0.000000 0.000000
vt 0.000000 0.000000
vt 0.000000 0.000000
vt 0.625000 0.500000
vt 0.625000 0.500000
vt 0.625000 0.500000
vt 0.625000 0.500000
vt 0.000000 0.000000
vt 0.625000 0.500000
vt 0.625000 0.500000
vt 0.625000 0.500000
vt 0.625000 0.500000
vt 0.625000 0.500000
vt 0.625000 0.500000
vt 0.625000 0.500000
vt 0.625000 0.500000
vt 0.625000 0.500000
vt 0.625000 0.500000
vt 0.000000 0.000000
vt 0.625000 0.500000
vt 0.625000 0.500000
vt 0.625000 0.500000
vt 0.625000 0.500000
vt 0.625000 0.500000
vt 0.625000 0.500000
vt 0.000000 0.000000
vt 0.625000 0.500000
vt 0.625000 0.500000
vt 0.625000 0.500000
vt 0.625000 0.500000
vt 0.625000 0.500000
vt 0.625000 0.500000
vt 0.625000 0.500000
vt 0.625000 0.500000
vt 0.000000 0.000000
vt 0.000000 0.000000
vt 0.000000 0.000000
vt 0.000000 0.000000
vt 0.000000 0.000000
vt 0.625000 0.500000
vt 0.625000 0.500000
vt 0.625000 0.500000
vt 0.625000 0.500000
vt 0.000000 0.000000
vt 0.000000 0.000000
vt 0.625000 0.500000
vt 0.625000 0.500000
vt 0.625000 0.500000
vt 0.625000 0.500000
vt 0.625000 0.500000
vt 0.625000 0.500000
vn 0.0000 0.0000 1.0000
vn 0.0000 -1.0000 0.0000
vn -1.0000 0.0000 0.0000
vn 1.0000 0.0000 0.0000
vn 0.0000 1.0000 0.0000
vn 0.0000 0.0000 -1.0000
g Room_Cube_Material
usemtl Material
s off
f 7/1/1 8/2/1 6/3/1 5/4/1
f 4/5/2 2/6/2 5/4/2 6/7/2
f 3/8/3 4/9/3 6/10/3 8/11/3
f 10/12/4 9/13/4 11/14/4 12/15/4
f 14/16/2 13/17/2 10/12/2 12/15/2
f 15/18/1 14/16/1 12/15/1 11/14/1
f 20/19/5 17/20/5 18/21/5 19/22/5
f 22/23/1 23/24/1 18/21/1 17/20/1
f 23/24/4 21/25/4 19/22/4 18/21/4
f 75/26/1 59/27/1 60/28/1 76/29/1
f 30/30/2 29/31/2 47/32/2 48/33/2
f 139/34/3 138/35/3 160/36/3 159/37/3
f 25/38/4 32/39/4 51/40/4 43/41/4
f 40/42/3 31/43/3 53/44/3 58/45/3
f 35/46/5 36/47/5 54/48/5 55/49/5
f 26/50/3 28/51/3 46/52/3 44/53/3
f 39/54/4 38/55/4 57/56/4 49/57/4
f 58/45/1 49/57/1 57/56/1 56/58/1
f 44/53/1 46/52/1 45/59/1 43/41/1
f 44/53/1 43/41/1 51/40/1 52/60/1
f 48/33/1 47/32/1 50/61/1 53/44/1
f 60/28/1 59/27/1 55/49/1 54/48/1
f 53/44/1 50/61/1 49/57/1 58/45/1
f 36/47/3 42/62/3 60/28/3 54/48/3
f 32/39/5 33/63/5 52/60/5 51/40/5
f 34/64/4 39/54/4 49/57/4 50/61/4
f 31/43/3 30/30/3 48/33/3 53/44/3
f 38/55/5 37/65/5 56/58/5 57/56/5
f 91/66/4 87/67/4 119/68/4 106/69/4
f 100/70/5 91/66/5 106/69/5 105/71/5
f 81/72/4 115/73/4 119/68/4 87/67/4
f 101/74/4 100/70/4 105/71/4 104/75/4
f 81/72/4 97/76/4 127/77/4 115/73/4
f 84/78/3 88/79/3 120/80/3 116/81/3
f 80/82/3 86/83/3 118/84/3 114/85/3
f 79/86/4 113/87/4 117/88/4 85/89/4
f 194/90/6 177/91/6 176/92/6 193/93/6
f 142/94/4 21/25/4 23/24/4 149/95/4
f 88/79/6 84/78/6 85/96/6 89/97/6
f 151/98/5 150/99/5 161/100/5 162/101/5
f 141/102/3 22/23/3 24/103/3 146/104/3
f 149/95/1 23/24/1 22/23/1 141/102/1
f 167/105/3 171/106/3 188/107/3 186/108/3
f 69/109/3 77/110/3 76/111/3 70/112/3
f 77/113/1 74/114/1 75/26/1 76/29/1
f 112/115/1 116/81/1 117/88/1 113/87/1
f 79/86/2 80/82/2 114/85/2 113/87/2
f 106/69/1 107/116/1 104/75/1 105/71/1
f 61/117/2 62/118/2 109/119/2 108/120/2
f 41/121/2 40/42/2 58/45/2 59/27/2
f 1/122/6 131/123/6 129/124/6 2/6/6
f 59/27/1 58/45/1 56/58/1 55/49/1
f 132/125/2 129/124/2 128/126/2 133/127/2
f 88/79/2 89/97/2 121/128/2 120/80/2
f 94/129/3 78/130/3 112/115/3 124/131/3
f 98/132/2 99/133/2 213/134/2 212/135/2
f 205/136/5 144/137/5 163/138/5 207/139/5
f 47/32/1 44/53/1 52/60/1 50/61/1
f 33/63/5 34/64/5 50/61/5 52/60/5
f 29/31/2 26/50/2 44/53/2 47/32/2
f 7/1/5 134/140/5 131/141/5 1/142/5
f 5/4/1 132/125/1 134/140/1 7/1/1
f 27/143/4 45/59/4 166/144/4 155/145/4
f 110/146/1 108/120/1 109/119/1 111/147/1
f 63/148/3 61/117/3 108/120/3 110/146/3
f 114/85/1 118/84/1 119/68/1 115/73/1
f 101/74/2 104/75/2 107/116/2 93/149/2
f 122/150/1 123/151/1 107/116/1 106/69/1
f 124/131/1 112/115/1 113/87/1 125/152/1
f 89/97/2 90/153/2 122/150/2 121/128/2
f 126/154/1 114/85/1 115/73/1 127/77/1
f 116/81/1 120/80/1 121/128/1 117/88/1
f 113/87/1 114/85/1 126/154/1 125/152/1
f 118/84/1 122/150/1 106/69/1 119/68/1
f 90/153/3 92/155/3 123/151/3 122/150/3
f 92/155/2 93/149/2 107/116/2 123/151/2
f 64/156/4 111/147/4 109/119/4 62/118/4
f 95/157/5 94/129/5 124/131/5 125/152/5
f 78/130/3 84/78/3 116/81/3 112/115/3
f 97/76/5 96/158/5 126/154/5 127/77/5
f 64/156/5 63/148/5 110/146/5 111/147/5
f 27/143/2 24/103/2 22/23/2 45/59/2
f 130/159/4 102/160/4 137/161/4 135/162/4
f 128/126/2 13/17/2 14/16/2 133/127/2
f 102/160/5 103/163/5 136/164/5 137/161/5
f 134/140/1 132/125/1 133/127/1 135/162/1
f 135/162/5 15/18/5 16/165/5 130/159/5
f 135/162/1 137/161/1 136/164/1 134/140/1
f 131/141/3 134/140/3 136/164/3 103/163/3
f 240/166/5 236/167/5 254/168/5 256/169/5
f 27/143/6 155/145/6 154/170/6 28/51/6
f 71/171/5 237/172/5 244/173/5 241/174/5
f 138/35/6 139/34/6 144/175/6 145/176/6
f 4/9/6 3/8/6 1/122/6 2/6/6
f 28/51/6 26/50/6 25/177/6 27/178/6
f 140/179/1 148/180/1 149/95/1 141/102/1
f 148/180/4 143/181/4 142/94/4 149/95/4
f 9/13/6 16/182/6 147/183/6 143/181/6
f 32/39/6 25/38/6 26/50/6 33/63/6
f 83/184/5 82/185/5 242/186/5 243/187/5
f 19/22/6 21/25/6 24/188/6 20/19/6
f 178/189/5 83/184/5 243/187/5 251/190/5
f 162/101/1 161/100/1 159/37/1 163/138/1
f 207/139/1 163/138/1 164/191/1 206/192/1
f 163/138/1 159/37/1 160/36/1 164/191/1
f 16/165/6 13/17/6 128/126/6 130/159/6
f 25/38/6 20/19/6 24/188/6 27/143/6
f 154/170/2 155/145/2 166/144/2 165/193/2
f 208/194/2 147/183/2 140/179/2 210/195/2
f 150/99/3 139/34/3 159/37/3 161/100/3
f 144/137/4 151/98/4 162/101/4 163/138/4
f 138/35/2 145/176/2 164/191/2 160/36/2
f 28/51/3 154/170/3 165/193/3 46/52/3
f 35/46/6 37/65/6 40/42/6 41/196/6
f 145/176/2 204/197/2 206/192/2 164/191/2
f 220/198/6 221/199/6 227/200/6 226/201/6
f 191/202/2 195/203/2 203/204/2 202/205/2
f 174/206/4 170/207/4 197/208/4 199/209/4
f 190/210/2 191/202/2 202/205/2 201/211/2
f 170/207/5 169/212/5 196/213/5 197/208/5
f 97/76/6 81/72/6 80/214/6 96/158/6
f 158/215/2 180/216/2 250/217/2 247/218/2
f 180/216/2 239/219/2 252/220/2 250/217/2
f 74/114/1 183/221/1 182/222/1 75/26/1
f 86/83/5 85/89/5 117/88/5 118/84/5
f 68/223/2 183/221/2 74/114/2 66/224/2
f 184/225/1 182/222/1 183/221/1 185/226/1
f 92/155/6 90/153/6 91/227/6 93/149/6
f 91/227/6 90/153/6 86/228/6 87/67/6
f 186/108/1 187/229/1 185/226/1 183/221/1
f 68/223/3 167/105/3 186/108/3 183/221/3
f 94/129/6 95/157/6 79/230/6 78/130/6
f 187/229/1 186/108/1 188/107/1 189/231/1
f 73/232/4 185/226/4 187/229/4 168/233/4
f 67/234/5 65/235/5 75/26/5 182/222/5
f 171/106/2 172/236/2 189/231/2 188/107/2
f 72/237/5 67/234/5 182/222/5 184/225/5
f 229/238/6 223/239/6 222/240/6 228/241/6
f 73/232/4 72/237/4 184/225/4 185/226/4
f 142/94/6 143/181/6 147/242/6 146/243/6
f 175/244/3 192/245/3 217/246/3 214/247/3
f 103/163/6 102/160/6 130/248/6 131/141/6
f 3/8/6 69/109/6 66/224/6 1/122/6
f 192/245/2 194/249/2 219/250/2 217/246/2
f 11/14/1 148/180/1 140/179/1 15/18/1
f 143/181/4 148/180/4 11/14/4 9/13/4
f 77/110/3 69/109/3 3/8/3 8/11/3
f 7/1/1 74/114/1 77/113/1 8/2/1
f 176/92/5 177/91/5 215/251/5 216/252/5
f 198/253/1 196/213/1 187/229/1 189/231/1
f 199/209/1 197/208/1 196/213/1 198/253/1
f 203/204/1 200/254/1 199/209/1 202/205/1
f 202/205/1 199/209/1 198/253/1 201/211/1
f 228/255/3 232/256/3 206/192/3 204/197/3
f 172/236/2 173/257/2 198/253/2 189/231/2
f 169/212/5 168/233/5 187/229/5 196/213/5
f 181/258/5 174/206/5 199/209/5 200/254/5
f 173/257/3 190/210/3 201/211/3 198/253/3
f 195/203/4 181/258/4 200/254/4 203/204/4
f 39/54/6 34/259/6 31/43/6 40/42/6
f 220/260/6 226/261/6 228/241/6 222/240/6
f 238/262/6 179/263/6 236/167/6 240/166/6
f 209/264/5 205/136/5 207/139/5 211/265/5
f 24/103/6 21/25/6 142/94/6 146/104/6
f 211/265/1 207/139/1 206/192/1 210/195/1
f 133/127/1 14/16/1 15/18/1 135/162/1
f 25/38/5 43/41/5 17/20/5 20/19/5
f 45/59/1 22/23/1 17/20/1 43/41/1
f 141/102/1 211/265/1 210/195/1 140/179/1
f 146/104/5 209/264/5 211/265/5 141/102/5
f 180/216/6 158/266/6 83/184/6 178/189/6
f 224/267/1 225/268/1 212/135/1 213/134/1
f 174/206/6 181/258/6 195/203/6 191/202/6
f 215/251/1 214/247/1 217/246/1 219/250/1
f 216/252/1 215/251/1 219/250/1 218/269/1
f 219/250/1 231/270/1 230/271/1 218/269/1
f 152/272/6 157/273/6 158/215/6 153/274/6
f 220/260/4 224/267/4 213/134/4 99/133/4
f 226/261/4 193/93/4 218/269/4 230/271/4
f 194/249/3 227/200/3 231/270/3 219/250/3
f 193/93/4 176/92/4 216/252/4 218/269/4
f 177/91/5 175/244/5 214/247/5 215/251/5
f 147/242/6 208/275/6 209/264/6 146/243/6
f 204/197/6 145/176/6 144/175/6 205/136/6
f 229/238/6 228/255/6 204/276/6 208/194/6
f 82/185/6 83/184/6 158/266/6 157/273/6
f 41/196/6 65/277/6 70/112/6 42/62/6
f 98/132/3 212/135/3 225/268/3 221/199/3
f 227/200/3 221/199/3 225/268/3 231/270/3
f 230/271/1 231/270/1 225/268/1 224/267/1
f 100/70/6 101/74/6 93/149/6 91/227/6
f 72/237/6 73/232/6 68/278/6 67/234/6
f 168/279/6 169/212/6 173/257/6 172/236/6
f 167/105/6 68/278/6 73/232/6 168/279/6
f 37/65/6 38/55/6 39/54/6 40/42/6
f 237/172/6 71/171/6 156/280/6 239/219/6
f 139/34/6 150/99/6 151/98/6 144/175/6
f 171/106/6 167/105/6 168/279/6 172/236/6
f 226/261/6 227/200/6 194/90/6 193/93/6
f 1/142/4 66/224/4 74/114/4 7/1/4
f 15/18/3 140/179/3 147/183/3 16/165/3
f 210/195/1 206/192/1 232/256/1 234/281/1
f 86/228/6 80/214/6 81/72/6 87/67/6
f 89/97/6 85/89/6 86/228/6 90/153/6
f 194/249/6 192/245/6 175/244/6 177/91/6
f 234/281/1 232/256/1 233/282/1 235/283/1
f 239/219/6 180/216/6 178/189/6 237/172/6
f 62/118/6 61/117/6 63/148/6 64/156/6
f 95/157/6 96/158/6 80/214/6 79/86/6
f 84/78/6 78/130/6 79/86/6 85/96/6
f 173/284/6 174/206/6 191/202/6 190/210/6
f 232/256/1 230/271/1 224/267/1 233/282/1
f 99/133/6 98/132/6 221/199/6 220/260/6
f 220/260/2 222/240/2 233/282/2 224/267/2
f 223/239/4 229/238/4 234/281/4 235/283/4
f 30/30/6 31/43/6 34/259/6 29/31/6
f 208/194/4 210/195/4 234/281/4 229/238/4
f 228/255/5 226/261/5 230/271/5 232/256/5
f 178/189/6 179/263/6 238/262/6 237/172/6
f 222/240/2 223/239/2 235/283/2 233/282/2
f 68/278/6 66/285/6 65/235/6 67/234/6
f 29/31/6 34/259/6 33/63/6 26/50/6
f 170/207/6 174/206/6 173/284/6 169/212/6
f 165/193/1 166/144/1 45/59/1 46/52/1
f 35/46/5 55/49/5 56/58/5 37/65/5
f 70/112/3 76/111/3 60/28/3 42/62/3
f 65/235/4 41/121/4 59/27/4 75/26/4
f 96/158/5 95/157/5 125/152/5 126/154/5
f 121/128/1 122/150/1 118/84/1 117/88/1
f 237/172/4 238/262/4 255/286/4 244/173/4
f 238/262/4 240/166/4 256/169/4 255/286/4
f 2/6/2 129/124/2 132/125/2 5/4/2
f 245/287/1 247/218/1 243/187/1 242/186/1
f 249/288/1 241/174/1 244/173/1 252/220/1
f 204/276/6 205/136/6 209/264/6 208/275/6
f 70/112/6 65/277/6 66/285/6 69/109/6
f 246/289/1 248/290/1 247/218/1 245/287/1
f 247/218/1 250/217/1 251/190/1 243/187/1
f 244/173/1 255/286/1 253/291/1 251/190/1
f 250/217/1 252/220/1 244/173/1 251/190/1
f 254/168/1 253/291/1 255/286/1 256/169/1
f 129/124/6 131/123/6 130/248/6 128/126/6
f 156/280/2 249/288/2 252/220/2 239/219/2
f 82/185/3 157/273/3 245/287/3 242/186/3
f 153/274/4 158/215/4 247/218/4 248/290/4
f 152/272/2 153/274/2 248/290/2 246/289/2
f 157/273/3 152/272/3 246/289/3 245/287/3
f 179/263/3 178/189/3 251/190/3 253/291/3
f 156/280/4 71/171/4 241/174/4 249/288/4
f 10/12/6 13/17/6 16/182/6 9/13/6
f 36/47/6 35/46/6 41/196/6 42/62/6
f 236/167/3 179/263/3 253/291/3 254/168/3
